# xmcd CD database file
#
# Track frame offsets:
#	150
#	16142
#	34237
#	53672
#	75642
#	91012
#	102522
#	121227
#	137057
#	154185
#
# Disc length: 2279 seconds
#
# Revision: 1
# Processed by: cddbd v1.5.1PL0 Copyright (c) Steve Scherf et al.
# Submitted via: CDex 1.51
#
DISCID=7208e50a
DTITLE=Travis Tritt - Super Hits Series Vol 2
DYEAR=2000
DGENRE=Country
TTITLE0=Can I Trust You With My Heart
TTITLE1=Help Me Hold On
TTITLE2=Put Some Drive In Your Country
TTITLE3=Tell Me I Was Dreaming
TTITLE4=More Than You'll Ever Know
TTITLE5=Here's A Quarter [Call Someone Who Cares]
TTITLE6=Helping Me Get Over You [feat. Lari White]
TTITLE7=Ten Feet Tall and Bullerproof
TTITLE8=If I Lost You
TTITLE9=For You
EXTD=YEAR: 2000
EXTT0=
EXTT1=
EXTT2=
EXTT3=
EXTT4=
EXTT5=
EXTT6=
EXTT7=
EXTT8=
EXTT9=
PLAYORDER=
